<?xml version="1.0" encoding="utf-8" ?>
<svg baseProfile="full" height="220mm" version="1.1" width="180mm" xmlns="http://www.w3.org/2000/svg" xmlns:ev="http://www.w3.org/2001/xml-events" xmlns:xlink="http://www.w3.org/1999/xlink"><defs /><g><rect fill="none" height="60mm" stroke="black" stroke-width="0.4mm" width="60mm" x="15.0mm" y="25.0mm" /><line stroke="black" stroke-width="0.4mm" x1="45.0mm" x2="45.0mm" y1="0mm" y2="220mm" /><rect fill="none" height="44mm" stroke="blue" stroke-width="0.4mm" width="45mm" x="22.5mm" y="33.0mm" /><line stroke="blue" stroke-width="0.4mm" x1="2.0mm" x2="88.0mm" y1="55.0mm" y2="55.0mm" /><text fill="blue" font-size="3mm" text-anchor="start" x="47.0mm" y="53.0mm">toe pin</text><circle cx="15.0mm" cy="25.0mm" fill="none" r="2.5mm" stroke="red" stroke-width="0.4mm" /><circle cx="75.0mm" cy="25.0mm" fill="none" r="2.5mm" stroke="red" stroke-width="0.4mm" /><circle cx="15.0mm" cy="85.0mm" fill="none" r="2.5mm" stroke="red" stroke-width="0.4mm" /><circle cx="75.0mm" cy="85.0mm" fill="none" r="2.5mm" stroke="red" stroke-width="0.4mm" /><circle cx="22.5mm" cy="33.0mm" fill="none" r="2.5mm" stroke="green" stroke-width="0.4mm" /><circle cx="67.5mm" cy="33.0mm" fill="none" r="2.5mm" stroke="green" stroke-width="0.4mm" /><circle cx="22.5mm" cy="77.0mm" fill="none" r="2.5mm" stroke="green" stroke-width="0.4mm" /><circle cx="67.5mm" cy="77.0mm" fill="none" r="2.5mm" stroke="green" stroke-width="0.4mm" /><text fill="black" font-size="3mm" text-anchor="start" x="47.0mm" y="23.0mm">60mm×60mm</text><text fill="blue" font-size="3mm" text-anchor="start" x="47.0mm" y="31.0mm">45mm×44mm</text><rect fill="none" height="60mm" stroke="black" stroke-width="0.4mm" width="45mm" x="22.5mm" y="135.0mm" /><circle cx="22.5mm" cy="135.0mm" fill="none" r="2.5mm" stroke="red" stroke-width="0.4mm" /><circle cx="67.5mm" cy="135.0mm" fill="none" r="2.5mm" stroke="red" stroke-width="0.4mm" /><circle cx="22.5mm" cy="195.0mm" fill="none" r="2.5mm" stroke="red" stroke-width="0.4mm" /><circle cx="67.5mm" cy="195.0mm" fill="none" r="2.5mm" stroke="red" stroke-width="0.4mm" /><line stroke="blue" stroke-width="0.4mm" x1="2.0mm" x2="88.0mm" y1="145.0mm" y2="145.0mm" /><text fill="blue" font-size="3mm" text-anchor="start" x="47.0mm" y="143.0mm">heel</text><text fill="black" font-size="3mm" text-anchor="start" x="47.0mm" y="133.0mm">45mm×60mm</text></g><svg height="220mm" width="90mm" x="90mm" y="0mm"><defs /><g><rect fill="none" height="60mm" stroke="black" stroke-width="0.4mm" width="60mm" x="15.0mm" y="25.0mm" /><line stroke="black" stroke-width="0.4mm" x1="45.0mm" x2="45.0mm" y1="0mm" y2="220mm" /><rect fill="none" height="44mm" stroke="blue" stroke-width="0.4mm" width="45mm" x="22.5mm" y="33.0mm" /><line stroke="blue" stroke-width="0.4mm" x1="2.0mm" x2="88.0mm" y1="55.0mm" y2="55.0mm" /><text fill="blue" font-size="3mm" text-anchor="start" x="47.0mm" y="53.0mm">toe pin</text><circle cx="15.0mm" cy="25.0mm" fill="none" r="2.5mm" stroke="red" stroke-width="0.4mm" /><circle cx="75.0mm" cy="25.0mm" fill="none" r="2.5mm" stroke="red" stroke-width="0.4mm" /><circle cx="15.0mm" cy="85.0mm" fill="none" r="2.5mm" stroke="red" stroke-width="0.4mm" /><circle cx="75.0mm" cy="85.0mm" fill="none" r="2.5mm" stroke="red" stroke-width="0.4mm" /><circle cx="22.5mm" cy="33.0mm" fill="none" r="2.5mm" stroke="green" stroke-width="0.4mm" /><circle cx="67.5mm" cy="33.0mm" fill="none" r="2.5mm" stroke="green" stroke-width="0.4mm" /><circle cx="22.5mm" cy="77.0mm" fill="none" r="2.5mm" stroke="green" stroke-width="0.4mm" /><circle cx="67.5mm" cy="77.0mm" fill="none" r="2.5mm" stroke="green" stroke-width="0.4mm" /><text fill="black" font-size="3mm" text-anchor="start" x="47.0mm" y="23.0mm">60mm×60mm</text><text fill="blue" font-size="3mm" text-anchor="start" x="47.0mm" y="31.0mm">45mm×44mm</text><rect fill="none" height="60mm" stroke="black" stroke-width="0.4mm" width="45mm" x="22.5mm" y="135.0mm" /><circle cx="22.5mm" cy="135.0mm" fill="none" r="2.5mm" stroke="red" stroke-width="0.4mm" /><circle cx="67.5mm" cy="135.0mm" fill="none" r="2.5mm" stroke="red" stroke-width="0.4mm" /><circle cx="22.5mm" cy="195.0mm" fill="none" r="2.5mm" stroke="red" stroke-width="0.4mm" /><circle cx="67.5mm" cy="195.0mm" fill="none" r="2.5mm" stroke="red" stroke-width="0.4mm" /><line stroke="blue" stroke-width="0.4mm" x1="2.0mm" x2="88.0mm" y1="145.0mm" y2="145.0mm" /><text fill="blue" font-size="3mm" text-anchor="start" x="47.0mm" y="143.0mm">heel</text><text fill="black" font-size="3mm" text-anchor="start" x="47.0mm" y="133.0mm">45mm×60mm</text></g></svg></svg>